<svg xmlns="http://www.w3.org/2000/svg" xmlns:xlink="http://www.w3.org/1999/xlink" id="Layer_1" enable-background="new 0 0 24 24" version="1.1" viewBox="0 0 24 24" xml:space="preserve"><g><path fill="#FFF" d="M17,22H7c-2.7614236,0-5-2.2385769-5-5V7c0-2.7614236,2.2385764-5,5-5h10c2.7614231,0,5,2.2385764,5,5v10 C22,19.7614231,19.7614231,22,17,22z"/><radialGradient id="SVGID_1_" cx="2.458" cy="22.208" r="26.815" gradientUnits="userSpaceOnUse"><stop offset="0" style="stop-color:#ffd35a"/><stop offset=".255" style="stop-color:#f7964c"/><stop offset=".6" style="stop-color:#f05b70"/><stop offset=".717" style="stop-color:#bd6186"/><stop offset=".853" style="stop-color:#85659b"/><stop offset=".951" style="stop-color:#5c66a9"/><stop offset="1" style="stop-color:#4766b0"/></radialGradient><path fill="url(#SVGID_1_)" d="M17.0219727,1H6.9780273C3.6816406,1,1,3.6816406,1,6.9780273v10.0439453 C1,20.3183594,3.6816406,23,6.9780273,23h10.0439453C20.3183594,23,23,20.3183594,23,17.0219727V6.9780273 C23,3.6816406,20.3183594,1,17.0219727,1z M21,17.0219727C21,19.215332,19.215332,21,17.0219727,21H6.9780273 C4.784668,21,3,19.215332,3,17.0219727V6.9780273C3,4.784668,4.784668,3,6.9780273,3h10.0439453 C19.215332,3,21,4.784668,21,6.9780273V17.0219727z M12,6c-3.3085938,0-6,2.6914063-6,6s2.6914063,6,6,6s6-2.6914063,6-6 S15.3085938,6,12,6z M12,16c-2.2055664,0-4-1.7944336-4-4s1.7944336-4,4-4s4,1.7944336,4,4S14.2055664,16,12,16z M18,5 c-0.5512695,0-1,0.4487305-1,1s0.4487305,1,1,1s1-0.4487305,1-1S18.5512695,5,18,5z"/><linearGradient id="SVGID_2_" x1=".534" x2="23.466" y1="6.653" y2="17.347" gradientUnits="userSpaceOnUse"><stop offset="0" style="stop-color:#fff;stop-opacity:.2"/><stop offset="1" style="stop-color:#fff;stop-opacity:0"/></linearGradient><path fill="url(#SVGID_2_)" d="M17.0219727,1H6.9780273C3.6816406,1,1,3.6816406,1,6.9780273v10.0439453 C1,20.3183594,3.6816406,23,6.9780273,23h10.0439453C20.3183594,23,23,20.3183594,23,17.0219727V6.9780273 C23,3.6816406,20.3183594,1,17.0219727,1z"/></g></svg>